#N canvas 661 114 564 300 12;
#X obj 117 101 makenote 64 250;
#X obj 120 147 noteout 1;
#X msg 91 32 60;
#X obj 331 33 bng 19 250 50 0 empty empty empty 0 -10 0 12 #fcfcfc #000000 #000000;
#X msg 330 81 open KickFilter.wav \, 1;
#X obj 335 116 readsf~;
#X obj 337 157 *~ 0.5;
#X obj 340 223 dac~;
#X msg 261 30 0;
#X connect 0 0 1 0;
#X connect 0 1 1 1;
#X connect 2 0 0 0;
#X connect 3 0 4 0;
#X connect 4 0 5 0;
#X connect 5 0 6 0;
#X connect 6 0 7 0;
#X connect 6 0 7 1;
#X connect 8 0 4 0;
