#N canvas 577 266 1202 691 12;
#X obj 125 343 makenote 64 250;
#X obj 127 404 noteout 1;
#X msg 125 275 60;
#X obj 123 87 metro 500;
#X obj 83 117 bng 15 250 50 0 empty empty empty 17 7 0 10 -262144 -1
-1;
#X obj 123 123 counter;
#X floatatom 123 162 5 0 0 0 - - -;
#X floatatom 123 237 5 0 0 0 - - -;
#X obj 227 87 bng 15 250 50 0 empty empty empty 17 7 0 10 -262144 -1
-1;
#X obj 394 349 makenote 64 250;
#X obj 397 395 noteout 1;
#X msg 388 280 65;
#X obj 397 73 metro 500;
#X obj 357 103 bng 15 250 50 0 empty empty empty 17 7 0 10 -262144
-1 -1;
#X obj 396 33 tgl 15 0 empty empty empty 17 7 0 10 -262144 -1 -1 0
1;
#X obj 397 109 counter;
#X floatatom 397 148 5 0 0 0 - - -;
#X obj 397 185 % 8;
#X floatatom 397 223 5 0 0 0 - - -;
#X obj 564 82 bng 15 250 50 0 empty empty empty 17 7 0 10 -262144 -1
-1;
#X obj 653 328 makenote 64 250;
#X obj 650 404 noteout 1;
#X msg 653 274 70;
#X obj 653 72 metro 500;
#X obj 613 102 bng 15 250 50 0 empty empty empty 17 7 0 10 -262144
-1 -1;
#X obj 652 32 tgl 15 0 empty empty empty 17 7 0 10 -262144 -1 -1 0
1;
#X obj 653 108 counter;
#X floatatom 653 147 5 0 0 0 - - -;
#X obj 653 184 % 8;
#X floatatom 653 222 5 0 0 0 - - -;
#X obj 768 97 bng 15 250 50 0 empty empty empty 17 7 0 10 -262144 -1
-1;
#X msg 185 37 10;
#X obj 884 333 makenote 64 250;
#X obj 881 409 noteout 1;
#X obj 884 77 metro 500;
#X obj 844 107 bng 15 250 50 0 empty empty empty 17 7 0 10 -262144
-1 -1;
#X obj 883 37 tgl 15 0 empty empty empty 17 7 0 10 -262144 -1 -1 0
1;
#X obj 884 113 counter;
#X floatatom 884 152 5 0 0 0 - - -;
#X obj 884 189 % 8;
#X floatatom 884 227 5 0 0 0 - - -;
#X obj 999 102 bng 15 250 50 0 empty empty empty 17 7 0 10 -262144
-1 -1;
#X msg 884 279 55;
#X msg 489 35 30;
#X msg 729 36 80;
#X msg 960 41 100;
#X obj 123 199 % 8;
#X obj 108 32 tgl 15 0 empty empty empty 17 7 0 10 -262144 -1 -1 0
1;
#X connect 0 0 1 0;
#X connect 0 1 1 1;
#X connect 2 0 0 0;
#X connect 3 0 4 0;
#X connect 3 0 5 0;
#X connect 5 0 6 0;
#X connect 6 0 46 0;
#X connect 7 0 2 0;
#X connect 8 0 5 1;
#X connect 9 0 10 0;
#X connect 9 1 10 1;
#X connect 11 0 9 0;
#X connect 12 0 13 0;
#X connect 12 0 15 0;
#X connect 14 0 12 0;
#X connect 15 0 16 0;
#X connect 16 0 17 0;
#X connect 17 0 18 0;
#X connect 18 0 11 0;
#X connect 19 0 15 1;
#X connect 20 0 21 0;
#X connect 20 1 21 1;
#X connect 22 0 20 0;
#X connect 23 0 24 0;
#X connect 23 0 26 0;
#X connect 25 0 23 0;
#X connect 26 0 27 0;
#X connect 27 0 28 0;
#X connect 28 0 29 0;
#X connect 29 0 22 0;
#X connect 30 0 26 1;
#X connect 31 0 3 1;
#X connect 32 0 33 0;
#X connect 32 1 33 1;
#X connect 34 0 35 0;
#X connect 34 0 37 0;
#X connect 36 0 34 0;
#X connect 37 0 38 0;
#X connect 38 0 39 0;
#X connect 39 0 40 0;
#X connect 40 0 42 0;
#X connect 41 0 37 1;
#X connect 42 0 32 0;
#X connect 43 0 12 1;
#X connect 44 0 23 1;
#X connect 45 0 34 1;
#X connect 46 0 7 0;
#X connect 47 0 3 0;
