#N canvas 458 54 1920 966 12;
#X declare -lib cyclone;
#X obj 125 196 metro 500;
#X obj 85 226 bng 15 250 50 0 empty empty empty 17 7 0 10 -262144 -1
-1;
#X obj 125 232 counter;
#X floatatom 125 271 5 0 0 0 - - -;
#X floatatom 125 346 5 0 0 0 - - -;
#X obj 229 196 bng 15 250 50 0 empty empty empty 17 7 0 10 -262144
-1 -1;
#X obj 399 182 metro 500;
#X obj 359 212 bng 15 250 50 0 empty empty empty 17 7 0 10 -262144
-1 -1;
#X obj 398 141 tgl 15 0 empty empty empty 17 7 0 10 -262144 -1 -1 0
1;
#X obj 399 218 counter;
#X floatatom 399 257 5 0 0 0 - - -;
#X obj 399 294 % 8;
#X floatatom 399 332 5 0 0 0 - - -;
#X obj 566 191 bng 15 250 50 0 empty empty empty 17 7 0 10 -262144
-1 -1;
#X obj 655 181 metro 500;
#X obj 615 211 bng 15 250 50 0 empty empty empty 17 7 0 10 -262144
-1 -1;
#X obj 654 141 tgl 15 0 empty empty empty 17 7 0 10 -262144 -1 -1 0
1;
#X obj 655 217 counter;
#X floatatom 655 256 5 0 0 0 - - -;
#X obj 655 293 % 8;
#X floatatom 655 331 5 0 0 0 - - -;
#X obj 770 206 bng 15 250 50 0 empty empty empty 17 7 0 10 -262144
-1 -1;
#X obj 886 186 metro 500;
#X obj 846 216 bng 15 250 50 0 empty empty empty 17 7 0 10 -262144
-1 -1;
#X obj 885 146 tgl 15 0 empty empty empty 17 7 0 10 -262144 -1 -1 0
1;
#X obj 886 222 counter;
#X floatatom 886 261 5 0 0 0 - - -;
#X obj 886 298 % 8;
#X floatatom 886 336 5 0 0 0 - - -;
#X obj 1001 211 bng 15 250 50 0 empty empty empty 17 7 0 10 -262144
-1 -1;
#X obj 125 308 % 8;
#X obj 110 141 tgl 15 0 empty empty empty 17 7 0 10 -262144 -1 -1 0
1;
#X obj 593 15 bng 15 250 50 0 empty empty empty 17 7 0 10 -262144 -1
-1;
#X obj 124 381 spigot;
#X obj 212 371 tgl 15 0 empty empty empty 17 7 0 10 -262144 -1 -1 1
1;
#X obj 399 376 spigot;
#X obj 487 366 tgl 15 0 empty empty empty 17 7 0 10 -262144 -1 -1 1
1;
#X obj 653 368 spigot;
#X obj 741 358 tgl 15 0 empty empty empty 17 7 0 10 -262144 -1 -1 0
1;
#X obj 884 376 spigot;
#X obj 972 366 tgl 15 0 empty empty empty 17 7 0 10 -262144 -1 -1 0
1;
#X obj 889 468 readsf~;
#X obj 894 575 dac~;
#X obj 891 509 *~ 0.25;
#X text 1008 362 Apagar y encender ritmo;
#X text 624 8 Empezar;
#X msg 884 433 open bouncy-electro-open-hat-one-shot.wav \, 1;
#X msg 962 148 400;
#X msg 731 145 800;
#X msg 491 144 200;
#X msg 187 146 600;
#X obj 658 469 readsf~;
#X obj 663 576 dac~;
#X obj 660 510 *~ 0.25;
#X msg 653 434 open breathy-vocal-yo.wav \, 1;
#X obj 357 481 readsf~;
#X obj 362 588 dac~;
#X obj 359 522 *~ 0.25;
#X msg 352 446 open KickFilter.wav \, 1;
#X obj 124 509 readsf~;
#X obj 114 645 dac~;
#X obj 125 560 *~ 0.25;
#X msg 124 452 open KickFilter.wav \, 1;
#X obj 25 762 declare -lib cyclone;
#X connect 0 0 1 0;
#X connect 0 0 2 0;
#X connect 2 0 3 0;
#X connect 3 0 30 0;
#X connect 4 0 33 0;
#X connect 5 0 2 1;
#X connect 6 0 7 0;
#X connect 6 0 9 0;
#X connect 8 0 6 0;
#X connect 9 0 10 0;
#X connect 10 0 11 0;
#X connect 11 0 12 0;
#X connect 12 0 35 0;
#X connect 13 0 9 1;
#X connect 14 0 15 0;
#X connect 14 0 17 0;
#X connect 16 0 14 0;
#X connect 17 0 18 0;
#X connect 18 0 19 0;
#X connect 19 0 20 0;
#X connect 20 0 37 0;
#X connect 21 0 17 1;
#X connect 22 0 23 0;
#X connect 22 0 25 0;
#X connect 24 0 22 0;
#X connect 25 0 26 0;
#X connect 26 0 27 0;
#X connect 27 0 28 0;
#X connect 28 0 39 0;
#X connect 29 0 25 1;
#X connect 30 0 4 0;
#X connect 31 0 0 0;
#X connect 32 0 50 0;
#X connect 32 0 49 0;
#X connect 32 0 31 0;
#X connect 32 0 8 0;
#X connect 32 0 16 0;
#X connect 32 0 48 0;
#X connect 32 0 24 0;
#X connect 32 0 47 0;
#X connect 33 0 62 0;
#X connect 34 0 33 1;
#X connect 35 0 58 0;
#X connect 36 0 35 1;
#X connect 37 0 54 0;
#X connect 38 0 37 1;
#X connect 39 0 46 0;
#X connect 40 0 39 1;
#X connect 41 0 43 0;
#X connect 43 0 42 0;
#X connect 43 0 42 1;
#X connect 46 0 41 0;
#X connect 47 0 22 1;
#X connect 48 0 14 1;
#X connect 49 0 6 1;
#X connect 50 0 0 1;
#X connect 51 0 53 0;
#X connect 53 0 52 0;
#X connect 53 0 52 1;
#X connect 54 0 51 0;
#X connect 55 0 57 0;
#X connect 57 0 56 0;
#X connect 57 0 56 1;
#X connect 58 0 55 0;
#X connect 59 0 61 0;
#X connect 61 0 60 0;
#X connect 61 0 60 1;
#X connect 62 0 59 0;
